<svg width="24" height="24" viewBox="0 0 512 512" xmlns="http://www.w3.org/2000/svg"><path fill="#F13A16" stroke="#F13A16" opacity=".973" d="M293.5 21q17.7-1.7 23.5 8.5 4.4 5.6 4 16l-5 11-28 28 23.5.5 25 5 22 9 21.5 14-.5 2-7-6H213q-1-9.1 3-14.5L286.5 24l7-3zM121.5 42h13l19 5q15.6 6.9 25.5 19.5 7.2 8.8 11 21l2 8v15h-1l-.5-1.5h-40l-2.5 1.5q2.5-1.5 1-7-2-10-9.5-14.5-5.2-4.4-16-3-9.1 2.4-13.5 9.5l-3 8v6l.5 1.5-2-2H64V95.5l5-16Q75.8 65.3 87.5 56l15-9 19-5zM64.5 110l.5 2.5h-1l.5-2.5zM111.5 119l1 2-1-2z"/><path fill="#F2511D" stroke="#F2511D" opacity=".976" d="M64.5 109h41l2.5 2.5v3l4.5 6.5 3 2q5 6 18 4l10.5-6 5-8.5q-2.7-1.8 1.5-3.5h40l.5 1.5v6l-1 9-6 14q-6.5 11-16.5 18.5l-17.5 9v40.5l-1 6.5h-31.5l-1 1-1-1H107l-1-6.5V167l-13.5-6-10.5-8-10-13.5-4-8-3-9-1-9 1-3-.5-1.5zM213 109h159.5l1 1 1.5-.5q-2.2 1.3.5 2.5l2 1 1.5-.5q-2.3 1.2.5 2.5l1-1 4 4 2.5 1.5q-.7 2.3 1.5 1.5l2.5 4 3 1.5q14.8 16.2 24 38l7 23 2 21-1 3-.5 2.5H384l-2-18.5-7-20q-7.8-14.7-19.5-25.5-13.9-13.1-35-19l-8-2-24-1 11.5 12.5q-.7 2.3 1.5 1.5l15.5 16.5q4.5 5.5 3 17-2.5 9-9.5 13.5-5.5 4.5-17 3l-7-3-70.5-70.5-3-9.5z"/><path fill="#F37C2A" stroke="#F37C2A" opacity=".973" d="M106.5 208l.5 6h8.5l1 1 1-1H149l.5-6 .5 135.5h-1l-.5-2.5h-41l-1.5.5.5-133.5zM383.5 209l.5 3.5h-1l.5-3.5zM426.5 211l.5 130h-43V214h41.5l1-3z"/><path fill="#F4A436" stroke="#F4A436" opacity=".973" d="M107.5 341h41l.5 2.5 14.5 7.5 11.5 9.5q9 9 14 22l4 22-1 1v11l-5 16q-6.7 14.3-18.5 23.5-9.8 8.2-24 12l-11 2h-11l-11-2-17-7L78 446.5q-7.1-7.9-11-19l-3-11v-11l-1-1 1-1 1-14L75 367q2.7 1.1 2-1.5l7.5-8.5q9.7-8.3 22.5-13.5-2.2-1.2.5-2.5zm19.5 43l-9 3q-8 5-11 15v7l4 9q4 6 13 8 12 2 17-4 6-4 8-13l-1-10-6-10-7-4-8-1zM384 341h42.5l.5 4h2.5q15 6 24.5 17.5 9.6 10.4 14 26l2 10v13l-4 17q-5.7 13.8-15.5 23.5-10.2 9.8-25 15l-15 3h-10l-1-1-11-1-13-5q-11.5-6-19.5-15.5-8.6-9.9-13-24l-2-9v-18q5.2-27.3 23.5-41.5l19.5-11.5V341zm21 43l-11 4q-6 4-9 12-2 13 4 19 4 5 13 7 10 1 15-3 7-4 9-13 2-12-4-17l-10-8-7-1z"/></svg>